<?xml version="1.0" encoding="iso-8859-1"?>
<!-- Generator: Adobe Illustrator 25.2.3, SVG Export Plug-In . SVG Version: 6.00 Build 0)  -->
<svg version="1.1" baseProfile="basic" id="fluent" xmlns="http://www.w3.org/2000/svg" xmlns:xlink="http://www.w3.org/1999/xlink"
	 x="0px" y="0px" viewBox="0 0 48 48" xml:space="preserve">
<path style="fill:#8D6E63;" d="M14.237,3.159l1.649,20.336c0.72-0.54,1.918,0.294,2.653-0.121c3.947-2.227,6.977-0.368,6.977,5.869
	c0,3.838-2.879,5.757-2.879,5.757c10.837-4.151,19.317,0,19.317,0c4.035-13.343-4.529-31.003-20.661-30.832
	C18.743,4.195,18.207,3.832,14.237,3.159z"/>
<path style="fill:#A1887F;" d="M26.46,12.89c-0.2,5.02-1.81,8.18-3.01,9.85c-0.06,0.09-0.12,0.16-0.17,0.24l-0.07-0.05
	c-0.51-0.31-1.08-0.46-1.72-0.46c-0.13,0-0.27,0.01-0.41,0.02c0.75-0.8,3.15-3.77,3.38-9.68c0.18-4.77-2.49-7.43-4.28-8.66
	c0.26,0.01,0.54,0.02,0.85,0.02h0.5c0.6,0,1.19,0.02,1.77,0.08C25.02,6.07,26.61,8.87,26.46,12.89z"/>
<path style="fill:#A1887F;" d="M30.49,16c-1.24,4.3-4.67,7.38-5.79,8.29c-0.05,0.05-0.1,0.09-0.14,0.12
	c-0.105-0.131-0.447-0.903-1.28-1.43l-0.07-0.05c0.05-0.04,0.13-0.1,0.24-0.19c0.96-0.8,4.05-3.58,5.12-7.3
	c1.33-4.59,0.17-9.67,0.1-9.98c0.77,0.29,1.51,0.62,2.22,1.02C31.21,8.53,31.55,12.33,30.49,16z"/>
<path style="fill:#A1887F;" d="M36.77,11.19c-0.23,2.13-1,5.46-3.44,8.83c-2.77,3.81-6.3,5.5-7.72,6.06
	c-0.16,0.07-0.29,0.11-0.39,0.15c0-0.03-0.01-0.06-0.02-0.09c-0.16-0.67-0.37-1.25-0.64-1.73l-0.03-0.05
	c0.04-0.02,0.1-0.04,0.17-0.07c1.03-0.39,4.43-1.89,7.01-5.44c3.18-4.39,3.16-8.76,3.12-9.62C35.52,9.84,36.17,10.49,36.77,11.19z"
	/>
<path style="fill:#A1887F;" d="M40.91,17.95c-0.9,2.24-2.77,5.47-6.42,7.36c-3.46,1.78-6.76,2.47-8.35,2.72
	c-0.27,0.04-0.5,0.07-0.66,0.09c0-0.09-0.01-0.17-0.01-0.25h-0.01c-0.04-0.6-0.12-1.15-0.24-1.64c0-0.03-0.01-0.06-0.02-0.09
	c0.1-0.01,0.24-0.03,0.41-0.06c1.34-0.19,4.61-0.82,7.96-2.55c4.47-2.31,5.83-7.13,6.09-8.2C40.12,16.18,40.54,17.05,40.91,17.95z"
	/>
<path style="fill:#A1887F;" d="M42.79,25.39c-1.57,1.55-4.4,3.89-7.63,4.5c-1.96,0.38-3.7,0.51-5.18,0.51
	c-2.1,0-3.64-0.26-4.49-0.46c0.02-0.23,0.03-0.46,0.03-0.7c0-0.39-0.01-0.77-0.04-1.12c0-0.09-0.01-0.17-0.01-0.25
	c0.12,0.04,0.35,0.1,0.67,0.16c1.36,0.29,4.46,0.7,8.65-0.1c3.68-0.7,6.93-4.25,7.62-5.05C42.58,23.71,42.71,24.55,42.79,25.39z"/>
<path style="fill:#EF6C00;" d="M20.359,35.533c0,0-1.207-2.022-0.717-5.315c0,0,1.696,0.728,4.207,1.348c0,0-0.136-0.929-0.38-3.766
	c0,0,3.62,0.636,6.25,2.549c0,0,1.5-1.826,3.457-3.098c0,0,1.551,1.269,2.609,2.554c0,0,1.467-1.185,4.043-3.337
	c0,0,0.587,3.033,0.261,5.38c0,0,2.283-1.533,4.565-2.25c0,0-0.693,4.287-2.221,6.399L20.359,35.533z"/>
<path style="fill:#FFB300;" d="M47,44H3c0-4.065,20.522-10.935,30.239-10.935C42.38,33.065,47.978,39.717,47,44z"/>
<path style="fill:#FFB300;" d="M18.582,35.997L18.234,34c0,0,2.027,0,3.397,0l0.346-1.522c0,0,1.48,0.457,3.958,1.174
	c0,0,0.176-1.206,0.908-2.283c0,0,1.749,0.465,3.266,1.174c0,0,1.109-1.174,1.98-2.25l1.607,1.924l3.63-0.783
	c0,0,0.352,1.559,0.448,2.084c0,0,2.095-0.201,3.671-0.454V35c0,0,2.029-0.315,4.197-0.598c0,0-0.989,2.03-2.432,3.033
	C42.18,38.15,18.582,35.997,18.582,35.997z"/>
<path style="fill:#6D4C41;" d="M9.654,3.928c1.11-0.835,4.84-1.172,6.162-0.312c0.335,0.218,2.702,1.392,3.588,2.636
	c0.755,1.06,2.305,4.488,2.519,5.421c0.481,2.096,0.407,4.975,0.049,6.44c-0.538,2.201-2.293,4.834-4.003,5.522
	c-0.905,0.364-2.812,0.96-4.463,0.73C10.87,24,8.599,21.291,7.504,18.786c-0.817-1.87-1.146-3.668-1.23-5.326
	C6.125,10.533,6.482,8.496,7.13,6.997C7.495,6.155,8.84,4.541,9.654,3.928z"/>
<path style="fill:#4E342E;" d="M19.85,12.137c0.147,0.603-0.344,1.299-0.291,1.884c0.057,0.621,0.66,1.222,0.618,1.804
	c-0.045,0.627-0.734,1.126-0.885,1.684c-0.166,0.612,0.159,1.401-0.122,1.901c-0.312,0.553-1.147,0.652-1.586,1.026
	c-0.466,0.397-0.734,1.2-1.325,1.345c-0.592,0.145-1.201-0.445-1.798-0.583c-0.562-0.13-1.349,0.168-1.88-0.179
	c-0.48-0.314-0.556-1.164-0.985-1.63c-0.391-0.426-1.233-0.551-1.562-1.086c-0.306-0.497-0.047-1.308-0.283-1.886
	c-0.222-0.544-0.98-0.936-1.127-1.538c-0.147-0.603,0.344-1.299,0.291-1.884c-0.057-0.621-0.66-1.222-0.618-1.804
	c0.045-0.627,0.734-1.126,0.885-1.684c0.166-0.612-0.159-1.401,0.122-1.901c0.312-0.553,1.147-0.652,1.586-1.026
	c0.466-0.397,0.734-1.2,1.325-1.345c0.592-0.145,1.201,0.445,1.798,0.583c0.562,0.13,1.349-0.168,1.88,0.179
	c0.48,0.314,0.556,1.164,0.985,1.63c0.391,0.426,1.233,0.551,1.562,1.086c0.306,0.497,0.047,1.308,0.283,1.886
	C18.945,11.142,19.702,11.534,19.85,12.137z"/>
<path style="fill:#3E2723;" d="M14.01,9.788l1.035,1.273l1.116-1.603l0.241,1.726l1.46-0.195l-0.685,1.271l1.594,0.844l-1.309,0.32
	l1.177,1.269l-1.385-0.147l0.239,1.597l-1.329-1.46l-0.35,1.871l-0.71-1.547l-1.243,0.466l0.192-1.313l-0.958-0.588l1.005-0.795
	l-0.942-0.8l1.135-0.415L14.01,9.788z"/>
</svg>